<svg xmlns="http://www.w3.org/2000/svg" width="18" height="18" viewBox="0 0 18 18"><g transform="translate(14894 14018)"><rect width="18" height="18" transform="translate(-14894 -14018)" fill="none"/><g transform="translate(-14892.631 -14016.629)"><path d="M14.814.509a1.531,1.531,0,0,0-2.162,0L12.264.9H9.192a2.764,2.764,0,0,0-1.949.829A2.763,2.763,0,0,0,5.295.9H.447A.447.447,0,0,0,0,1.343V13.95a.447.447,0,0,0,.445.447l5.264.027a1.658,1.658,0,0,0,1.407.893l.07,0,.07,0a1.657,1.657,0,0,0,1.406-.892h5.368a.447.447,0,0,0,.447-.447V3.009l.338-.338a1.53,1.53,0,0,0,0-2.162Zm-.632.632a.636.636,0,0,1,0,.9l-.469.469h0l-.037.037-.9-.9.506-.506A.636.636,0,0,1,14.182,1.141ZM6.917,8.969l-.928.364.364-.928Zm.8-.465-.9-.9,5.327-5.327.9.9ZM.894,1.79h4.4a1.761,1.761,0,0,1,1.54.9.447.447,0,0,0,.817,0,1.761,1.761,0,0,1,1.54-.9H11.37l-5.5,5.5,0,0a.447.447,0,0,0-.1.15L5.514,8.1a.446.446,0,0,0-.386-.223H2.239a.447.447,0,0,0,0,.894H5.127a.447.447,0,0,0,.131-.02L4.9,9.662H2.239a.447.447,0,0,0,0,.894H5.094a.441.441,0,0,0,.269-.018l2.516-.986a.446.446,0,0,0,.152-.1h0L13.582,3.9v7.841H8.7a2.349,2.349,0,0,0-1.461.479,2.349,2.349,0,0,0-1.461-.479H.894ZM8.359,13.531a.447.447,0,0,0-.431.328.767.767,0,0,1-.711.564H7.153a.767.767,0,0,1-.711-.564.447.447,0,0,0-.429-.328l-5.12-.026v-.867H5.781a1.382,1.382,0,0,1,1.087.454.448.448,0,0,0,.756-.01A1.39,1.39,0,0,1,8.7,12.638h4.879v.894Z" transform="translate(0 -0.062)" fill="#168de3" stroke="#168de3" stroke-width="0.2"/><path d="M60.571,143.155h2.889a.447.447,0,1,0,0-.894H60.571a.447.447,0,1,0,0,.894Z" transform="translate(-58.332 -138.024)" fill="#168de3" stroke="#168de3" stroke-width="0.2"/><path d="M60.571,203.155h2.889a.447.447,0,1,0,0-.894H60.571a.447.447,0,1,0,0,.894Z" transform="translate(-58.332 -196.236)" fill="#168de3" stroke="#168de3" stroke-width="0.2"/></g></g></svg>