<svg xmlns="http://www.w3.org/2000/svg" width="57" height="57" viewBox="0 0 57 57"><g transform="translate(-13982 19665)"><rect width="57" height="57" transform="translate(13982 -19665)" fill="none"/><g transform="translate(13983.852 -19723.371)" opacity="0.3"><path d="M0,253.287v12.492a1.041,1.041,0,0,0,1.041,1.041H52.257a1.041,1.041,0,0,0,1.041-1.041v-6.246a1.041,1.041,0,0,0-1.041-1.041H38.1V247.041A1.041,1.041,0,0,0,37.059,246H16.239a1.041,1.041,0,0,0-1.041,1.041v5.2H1.041A1.041,1.041,0,0,0,0,253.287Zm51.216,7.287v4.164H38.1v-4.164ZM17.28,248.082H36.018v16.656H17.28Zm-15.2,6.246H15.2v10.41H2.082Z" transform="translate(0 -159.077)" fill="#168de3"/><path d="M227.041,312.246a1.041,1.041,0,1,0,0,2.082H231.2a1.041,1.041,0,1,0,0-2.082h-1.041v-4.164H231.2a1.041,1.041,0,1,0,0-2.082h-4.164a1.041,1.041,0,1,0,0,2.082h1.041v4.164Z" transform="translate(-202.474 -213.268)" fill="#168de3"/><path d="M202.849,71.035a1.041,1.041,0,0,0-.835-.708l-3.556-.536-1.608-3.216a1.041,1.041,0,0,0-1.862,0l-1.608,3.216-3.556.536a1.041,1.041,0,0,0-.575,1.771l2.562,2.523-.59,3.547a1.041,1.041,0,0,0,1.506,1.094l3.192-1.657,3.192,1.657a1.041,1.041,0,0,0,1.506-1.094l-.59-3.547,2.562-2.523A1.041,1.041,0,0,0,202.849,71.035Z" transform="translate(-169.27 0)" fill="#168de3"/></g></g></svg>