<svg xmlns="http://www.w3.org/2000/svg" width="57" height="57" viewBox="0 0 57 57"><g transform="translate(-13982 19588)"><rect width="57" height="57" transform="translate(13982 -19588)" fill="none"/><g transform="translate(13985.882 -19580.371)" opacity="0.3"><path d="M42.4,16.767V48.481a1.721,1.721,0,0,1-1.8,1.631H11.8A1.721,1.721,0,0,1,10,48.481V11.631A1.721,1.721,0,0,1,11.8,10H35.2v5.136A1.721,1.721,0,0,0,37,16.767ZM21.159,20.028,19,15.136l-2.16,4.892Zm0,0" transform="translate(-9.185 -9.185)" fill="none"/><path d="M290,10l6.522,6.767h-4.892A1.63,1.63,0,0,1,290,15.136Zm0,0" transform="translate(-263.309 -9.185)" fill="none"/><path d="M180.815,246a.815.815,0,1,0,.815.815A.816.816,0,0,0,180.815,246Zm0,0" transform="translate(-163.801 -225.944)" fill="#168de3"/><path d="M180.815,326a.815.815,0,1,0,.815.815A.816.816,0,0,0,180.815,326Zm0,0" transform="translate(-163.801 -299.422)" fill="#168de3"/><path d="M180.815,409a.815.815,0,1,0,.815.815A.816.816,0,0,0,180.815,409Zm0,0" transform="translate(-163.801 -375.655)" fill="#168de3"/><path d="M34.027,7.554c0-.015,0-.03,0-.045s0-.026-.005-.039,0-.027-.007-.04S34.006,7.4,34,7.39s-.007-.025-.01-.037-.009-.026-.014-.039-.009-.025-.015-.037-.011-.024-.017-.036-.012-.025-.019-.036l-.021-.034-.023-.035c-.008-.011-.017-.022-.026-.033l-.026-.031c-.01-.012-.021-.023-.032-.034l-.02-.022L26.614.249,26.608.244,26.571.213,26.542.189,26.507.165,26.472.14,26.44.123,26.4.1,26.361.083,26.319.065,26.272.049,26.239.038l-.05-.012L26.154.018,26.11.011,26.067.005l-.039,0-.05,0H2.686A2.577,2.577,0,0,0,0,2.446V39.3a2.577,2.577,0,0,0,2.686,2.446H31.342A2.577,2.577,0,0,0,34.028,39.3V7.582C34.028,7.572,34.027,7.563,34.027,7.554ZM26.864,2.836l4.162,3.931H27.76a.859.859,0,0,1-.9-.815ZM32.237,39.3a.859.859,0,0,1-.9.815H2.686a.859.859,0,0,1-.9-.815V2.446a.859.859,0,0,1,.9-.815H25.073V5.951A2.577,2.577,0,0,0,27.76,8.4h4.477Zm0,0" transform="translate(0 0)" fill="#168de3" stroke="#168de3" stroke-width="0.2"/><path d="M65.13,226.239l-2.685,2.685-1.054-1.054a.815.815,0,0,0-1.153,1.153l1.631,1.631a.815.815,0,0,0,1.153,0l3.261-3.261a.815.815,0,0,0-1.153-1.153Zm0,0" transform="translate(-54.499 -207.575)" fill="#168de3"/><path d="M220.815,246a.815.815,0,1,0,0,1.631h6.522a.815.815,0,1,0,0-1.631Zm0,0" transform="translate(-199.669 -225.944)" fill="#168de3"/><path d="M65.13,306.239l-2.685,2.685-1.054-1.054a.815.815,0,0,0-1.153,1.153l1.631,1.631a.815.815,0,0,0,1.153,0l3.261-3.261a.815.815,0,0,0-1.153-1.153Zm0,0" transform="translate(-54.499 -281.053)" fill="#168de3"/><path d="M227.337,326h-6.522a.815.815,0,1,0,0,1.631h6.522a.815.815,0,1,0,0-1.631Zm0,0" transform="translate(-199.669 -299.422)" fill="#168de3"/><path d="M65.13,389.239l-2.685,2.685-1.054-1.054a.815.815,0,0,0-1.153,1.153l1.631,1.631a.815.815,0,0,0,1.153,0l3.261-3.261a.815.815,0,0,0-1.153-1.153Zm0,0" transform="translate(-54.499 -357.286)" fill="#168de3"/><path d="M227.337,409h-6.522a.815.815,0,1,0,0,1.631h6.522a.815.815,0,1,0,0-1.631Zm0,0" transform="translate(-199.669 -375.655)" fill="#168de3"/><path d="M66.782,68.391v0L64.83,63.512a.815.815,0,0,0-1.514,0l-1.951,4.877h0l-1.31,3.275a.815.815,0,0,0,1.514.606l1.1-2.749h2.81l1.1,2.749a.815.815,0,0,0,1.514-.606Zm-3.461-.5.753-1.881.753,1.881Zm0,0" transform="translate(-54.452 -57.864)" fill="#168de3"/><path d="M164.076,64.631h-.815v-.815a.815.815,0,1,0-1.631,0v.815h-.815a.815.815,0,0,0,0,1.631h.815v.815a.815.815,0,1,0,1.631,0v-.815h.815a.815.815,0,1,0,0-1.631Zm0,0" transform="translate(-145.432 -57.864)" fill="#168de3"/><path d="M414.589,1.019a3.409,3.409,0,0,0-3.4,3.4V29.653a1.014,1.014,0,0,0,.1.445l2.394,4.9a1.014,1.014,0,0,0,1.822,0l2.394-4.9a1.015,1.015,0,0,0,.1-.445V4.424a3.41,3.41,0,0,0-3.411-3.4Zm-1.377,5.888h2.759V25.733h-2.759Zm1.383-3.86a1.378,1.378,0,0,1,1.377,1.377v.455h-2.759V4.424A1.38,1.38,0,0,1,414.6,3.047Zm1.377,26.371-1.38,2.824-1.38-2.824V27.761h2.759Z" transform="translate(-368.763 4.932)" fill="#168de3"/></g></g></svg>