<svg xmlns="http://www.w3.org/2000/svg" width="15.725" height="20.723" viewBox="0 0 15.725 20.723"><defs><style>.a{fill:#168de3;stroke:#168de3;stroke-width:0.2px;}</style></defs><g transform="translate(-73.153 0.1)"><path class="a" d="M88.141,0H73.89a.62.62,0,0,0-.637.6V19.922a.62.62,0,0,0,.637.6H88.141a.62.62,0,0,0,.637-.6V.6A.62.62,0,0,0,88.141,0ZM83.976,1.2v1.7H78.055V1.2ZM87.5,19.321H74.527V1.2H76.78v2.3a.62.62,0,0,0,.637.6h7.2a.62.62,0,0,0,.637-.6V1.2H87.5Z"/><path class="a" d="M151.26,219.737h-2.453a.637.637,0,0,0,0,1.274h.915l-3.015,3.015-1.96-1.96a.637.637,0,0,0-.9,0l-1.421,1.421a.637.637,0,0,0,.9.9l.97-.97,1.96,1.96a.641.641,0,0,0,.9,0l3.466-3.466v.915a.637.637,0,0,0,1.274,0v-2.453A.637.637,0,0,0,151.26,219.737Z" transform="translate(-66.052 -211.121)"/></g></svg>