<svg width="18" height="18" viewBox="0 0 18 18" fill="none" xmlns="http://www.w3.org/2000/svg">
<path d="M14 2H4C2.89543 2 2 2.89543 2 4V14C2 15.1046 2.89543 16 4 16H14C15.1046 16 16 15.1046 16 14V4C16 2.89543 15.1046 2 14 2Z" stroke="#CBD1D8" stroke-width="1.5" stroke-linecap="round" stroke-linejoin="round"/>
<path d="M6.278 7.44508C6.92252 7.44508 7.445 6.9226 7.445 6.27808C7.445 5.63357 6.92252 5.11108 6.278 5.11108C5.63348 5.11108 5.111 5.63357 5.111 6.27808C5.111 6.9226 5.63348 7.44508 6.278 7.44508Z" stroke="#CBD1D8" stroke-width="1.5" stroke-linecap="round" stroke-linejoin="round"/>
<path d="M16 11.3331L12.112 7.44409L3.556 16.0001" stroke="#CBD1D8" stroke-width="1.5" stroke-linecap="round" stroke-linejoin="round"/>
</svg>
