<svg xmlns="http://www.w3.org/2000/svg" width="21.999" height="22" viewBox="0 0 21.999 22"><defs><style>.a,.b{fill:none;}.a{stroke:#012246;stroke-linecap:round;stroke-width:1.5px;}.c,.d{stroke:none;}.d{fill:rgba(1,34,70,0.8);}</style></defs><g transform="translate(-314)"><g transform="matrix(1, 0, 0, 1, 321.563, 6.771)"><path class="a" d="M0,0,3.437,3.273,6.875,0" transform="translate(0 5.186)"/><path class="a" d="M0,8.46V0" transform="translate(3.437 0)"/></g><g class="b" transform="translate(314)"><path class="c" d="M11,0A11,11,0,1,1,0,11,11,11,0,0,1,11,0Z"/><path class="d" d="M 10.99971485137939 1.499998092651367 C 5.761554718017578 1.499998092651367 1.499994277954102 5.761678695678711 1.499994277954102 10.99999904632568 C 1.499994277954102 16.23831939697266 5.761554718017578 20.5 10.99971485137939 20.5 C 16.23787498474121 20.5 20.49942398071289 16.23831939697266 20.49942398071289 10.99999904632568 C 20.49942398071289 5.761678695678711 16.23787498474121 1.499998092651367 10.99971485137939 1.499998092651367 M 10.99971485137939 -1.9073486328125e-06 C 17.07468414306641 -1.9073486328125e-06 21.99942398071289 4.924869537353516 21.99942398071289 10.99999904632568 C 21.99942398071289 17.07512855529785 17.07468414306641 22 10.99971485137939 22 C 4.924734115600586 22 -5.7220458984375e-06 17.07512855529785 -5.7220458984375e-06 10.99999904632568 C -5.7220458984375e-06 4.924869537353516 4.924734115600586 -1.9073486328125e-06 10.99971485137939 -1.9073486328125e-06 Z"/></g></g></svg>