<svg xmlns="http://www.w3.org/2000/svg" width="100.887" height="102.214" viewBox="0 0 100.887 102.214">
  <g id="Group_13580" data-name="Group 13580" transform="translate(-27.164 -0.672)">
    <path id="Path_20526" data-name="Path 20526" d="M41.721,1.862A12.667,12.667,0,0,1,54.327,14.644a12.607,12.607,0,1,1-25.212,0A12.667,12.667,0,0,1,41.721,1.862Z" transform="translate(35.889 21.886)" fill="none" stroke="#000" stroke-linecap="round" stroke-linejoin="round" stroke-width="0.265"/>
    <path id="Path_20527" data-name="Path 20527" d="M77.6.672c-27.919,0-50.44,22.84-50.44,51.092s22.522,51.122,50.44,51.122,50.44-22.869,50.44-51.122S105.523.672,77.6.672Z" transform="translate(0.006 0)" fill="#81bcf3"/>
    <path id="Path_20528" data-name="Path 20528" d="M66.676,1.731a15.336,15.336,0,1,0,15.19,15.33,15.285,15.285,0,0,0-15.19-15.33Zm.08,38.456a37.149,37.149,0,0,0-17.244,4.379,54.1,54.1,0,0,0-12.936,9.639,53.981,53.981,0,0,0-8.818,10.731A50.441,50.441,0,0,0,66.676,83.413c15.61,0,30.022-7.1,38.867-18.507a52.5,52.5,0,0,0-8.687-10.7,53.614,53.614,0,0,0-12.875-9.639,37.021,37.021,0,0,0-17.224-4.379Z" transform="translate(10.934 19.472)" fill="#ecebf1"/>
    <path id="Path_20529" data-name="Path 20529" d="M77.6.672c-27.918,0-50.44,22.839-50.44,51.091A51.2,51.2,0,0,0,47.7,92.894a51.313,51.313,0,0,1-10.28-30.871c0-28.252,22.521-51.091,50.44-51.091a49.76,49.76,0,0,1,29.909,9.99A50.045,50.045,0,0,0,77.6.672Z" transform="translate(0 0)" fill="#6ea9e3"/>
    <path id="Path_20530" data-name="Path 20530" d="M66.675,1.731A15.308,15.308,0,0,0,62.457,31.72,15.139,15.139,0,0,1,76.935,11.991a14.833,14.833,0,0,1,4.218.681A15.189,15.189,0,0,0,66.675,1.731Zm.08,38.456a37.149,37.149,0,0,0-17.244,4.379A54.1,54.1,0,0,0,36.576,54.2a53.985,53.985,0,0,0-8.817,10.731,50.951,50.951,0,0,0,10.671,9.659,53.589,53.589,0,0,1,8.407-10.13,54.1,54.1,0,0,1,12.936-9.639,36.105,36.105,0,0,1,34.468,0,48.911,48.911,0,0,1,7.876,5.2,67.2,67.2,0,0,0-5.26-5.822,53.627,53.627,0,0,0-12.875-9.639,41.159,41.159,0,0,0-4.91-2.124,13.624,13.624,0,0,1-10.08-2.1c-.746-.048-1.47-.15-2.234-.15Z" transform="translate(10.928 19.472)" fill="#d9d7e4"/>
    <path id="Path_20531" data-name="Path 20531" d="M77.6.672c-27.918,0-50.44,22.839-50.44,51.091s22.521,51.121,50.44,51.121,50.44-22.869,50.44-51.121S105.522.672,77.6.672Zm0,5.11c25.127,0,45.29,20.445,45.29,45.981a46.432,46.432,0,0,1-7.886,26.031C113.161,74.532,102.276,57.1,77.684,57.1S42.071,74.554,40.21,77.8a46.427,46.427,0,0,1-7.9-26.041c0-25.536,20.163-45.981,45.29-45.981Zm0,15.42a15.336,15.336,0,1,0,15.19,15.33A15.285,15.285,0,0,0,77.6,21.2Zm0,5.11a10.227,10.227,0,1,1-10.04,10.22A10.054,10.054,0,0,1,77.6,26.312Zm.08,35.9c24.283,0,33.476,19.088,33.476,19.088a2.573,2.573,0,0,0,.561.752,44.882,44.882,0,0,1-68.245-.01,2.567,2.567,0,0,0,.541-.711S53.4,62.213,77.684,62.213Z" transform="translate(0 0)" fill="#168de3"/>
  </g>
</svg>
