<svg width="18" height="18" viewBox="0 0 18 18" fill="none" xmlns="http://www.w3.org/2000/svg">
<path d="M2 13.667V9C2 8.08075 2.18106 7.1705 2.53284 6.32122C2.88463 5.47194 3.40024 4.70026 4.05025 4.05025C4.70026 3.40024 5.47194 2.88463 6.32122 2.53284C7.1705 2.18106 8.08075 2 9 2C9.91925 2 10.8295 2.18106 11.6788 2.53284C12.5281 2.88463 13.2997 3.40024 13.9497 4.05025C14.5998 4.70026 15.1154 5.47194 15.4672 6.32122C15.8189 7.1705 16 8.08075 16 9V13.667" stroke="#CBD1D8" stroke-width="1.5" stroke-linecap="round" stroke-linejoin="round"/>
<path d="M16 14.4449C16 14.6492 15.9598 14.8516 15.8816 15.0404C15.8034 15.2291 15.6887 15.4007 15.5443 15.5452C15.3998 15.6897 15.2282 15.8043 15.0395 15.8825C14.8507 15.9607 14.6483 16.0009 14.444 16.0009H13.666C13.2533 16.0009 12.8575 15.837 12.5657 15.5452C12.2739 15.2534 12.11 14.8576 12.11 14.4449V12.1119C12.11 11.9075 12.1503 11.7051 12.2285 11.5162C12.3068 11.3274 12.4215 11.1558 12.5661 11.0113C12.7107 10.8668 12.8823 10.7522 13.0712 10.6741C13.2601 10.5959 13.4626 10.5558 13.667 10.5559H16V14.4449ZM2 14.4449C2 14.8576 2.16394 15.2534 2.45574 15.5452C2.74755 15.837 3.14332 16.0009 3.556 16.0009H4.334C4.74668 16.0009 5.14245 15.837 5.43426 15.5452C5.72606 15.2534 5.89 14.8576 5.89 14.4449V12.1119C5.89 11.9075 5.84972 11.7051 5.77146 11.5162C5.6932 11.3274 5.5785 11.1558 5.4339 11.0113C5.28931 10.8668 5.11766 10.7522 4.92876 10.6741C4.73986 10.5959 4.53742 10.5558 4.333 10.5559H2V14.4449Z" stroke="#CBD1D8" stroke-width="1.5" stroke-linecap="round" stroke-linejoin="round"/>
</svg>
