<svg width="18" height="18" viewBox="0 0 18 18" fill="none" xmlns="http://www.w3.org/2000/svg">
<path fill-rule="evenodd" clip-rule="evenodd" d="M14.953 10.011H2.563C2.41385 10.0115 2.27095 10.071 2.16548 10.1765C2.06001 10.2819 2.00053 10.4248 2 10.574V11.7C2 11.8493 2.05932 11.9925 2.1649 12.0981C2.27048 12.2037 2.41368 12.263 2.563 12.263H14.953C15.1023 12.263 15.2455 12.2037 15.3511 12.0981C15.4567 11.9925 15.516 11.8493 15.516 11.7V10.574C15.516 10.4247 15.4567 10.2815 15.3511 10.1759C15.2455 10.0703 15.1023 10.011 14.953 10.011ZM14.953 5.506H2.563C2.41385 5.50653 2.27095 5.56601 2.16548 5.67148C2.06001 5.77695 2.00053 5.91985 2 6.069V7.195C2 7.34432 2.05932 7.48752 2.1649 7.5931C2.27048 7.69868 2.41368 7.758 2.563 7.758H14.953C15.1023 7.758 15.2455 7.69868 15.3511 7.5931C15.4567 7.48752 15.516 7.34432 15.516 7.195V6.069C15.5161 5.99498 15.5017 5.92166 15.4734 5.85324C15.4452 5.78482 15.4037 5.72264 15.3515 5.67025C15.2992 5.61787 15.2371 5.57631 15.1687 5.54795C15.1003 5.5196 15.027 5.505 14.953 5.505V5.506ZM9.321 14.517H2.563C2.41402 14.5175 2.27127 14.5769 2.16583 14.6821C2.06039 14.7874 2.00079 14.93 2 15.079V16.205C2 16.3543 2.05932 16.4975 2.1649 16.6031C2.27048 16.7087 2.41368 16.768 2.563 16.768H9.321C9.47032 16.768 9.61352 16.7087 9.7191 16.6031C9.82468 16.4975 9.884 16.3543 9.884 16.205V15.079C9.884 15.0051 9.86944 14.9319 9.84114 14.8635C9.81285 14.7952 9.77138 14.7332 9.7191 14.6809C9.66682 14.6286 9.60476 14.5871 9.53645 14.5589C9.46814 14.5306 9.39493 14.516 9.321 14.516V14.517ZM14.953 1H2.563C2.41385 1.00053 2.27095 1.06001 2.16548 1.16548C2.06001 1.27095 2.00053 1.41385 2 1.563V2.69C2 2.83932 2.05932 2.98252 2.1649 3.0881C2.27048 3.19368 2.41368 3.253 2.563 3.253H14.953C15.1023 3.253 15.2455 3.19368 15.3511 3.0881C15.4567 2.98252 15.516 2.83932 15.516 2.69V1.563C15.516 1.41368 15.4567 1.27048 15.3511 1.1649C15.2455 1.05932 15.1023 1 14.953 1Z" fill="#168DE3"/>
</svg>
