<svg xmlns="http://www.w3.org/2000/svg" width="18" height="18" viewBox="0 0 18 18"><g transform="translate(14894 14041)"><rect width="18" height="18" transform="translate(-14894 -14041)" fill="none"/><g transform="translate(-14892.349 -14037.472)"><path d="M61.491,82h5.883a.51.51,0,0,0,0-1.021H61.491a.51.51,0,0,0,0,1.021Zm0,0" transform="translate(-60.98 -80.98)" fill="#168de3" stroke="#168de3" stroke-width="0.8"/><path d="M72.107,153.25H61.381a.525.525,0,0,0,0,1.021H72.107a.525.525,0,0,0,0-1.021Zm0,0" transform="translate(-60.98 -148.289)" fill="#168de3" stroke="#168de3" stroke-width="0.8"/><path d="M75.168,225.523H61.491a.51.51,0,0,0,0,1.021H75.167a.51.51,0,1,0,0-1.021Zm0,0" transform="translate(-60.98 -215.601)" fill="#168de3" stroke="#168de3" stroke-width="0.8"/></g></g></svg>