<svg width="18" height="18" viewBox="0 0 18 18" fill="none" xmlns="http://www.w3.org/2000/svg">
<path d="M3.4 12.8889H2.6C2.39277 12.8918 2.18699 12.8539 1.99443 12.7773C1.80186 12.7006 1.62628 12.5868 1.4777 12.4423C1.32912 12.2978 1.21046 12.1255 1.1285 11.9351C1.04653 11.7448 1.00287 11.5401 1 11.3329V3.55591C1.00287 3.34868 1.04653 3.14404 1.1285 2.95369C1.21046 2.76333 1.32912 2.59099 1.4777 2.44649C1.62628 2.302 1.80186 2.18819 1.99443 2.11157C2.18699 2.03494 2.39277 1.997 2.6 1.99991H15.4C15.6072 1.997 15.813 2.03494 16.0056 2.11157C16.1981 2.18819 16.3737 2.302 16.5223 2.44649C16.6709 2.59099 16.7895 2.76333 16.8715 2.95369C16.9535 3.14404 16.9971 3.34868 17 3.55591V11.3339C16.9971 11.5411 16.9535 11.7458 16.8715 11.9361C16.7895 12.1265 16.6709 12.2988 16.5223 12.4433C16.3737 12.5878 16.1981 12.7016 16.0056 12.7783C15.813 12.8549 15.6072 12.8928 15.4 12.8899H14.6" stroke="#168DE3" stroke-width="1.5" stroke-linecap="round" stroke-linejoin="round"/>
<path d="M9 11.333L13 16H5L9 11.333Z" stroke="#168DE3" stroke-width="1.5" stroke-linecap="round" stroke-linejoin="round"/>
</svg>
