<svg width="17" height="15" viewBox="0 0 17 15" fill="none" xmlns="http://www.w3.org/2000/svg">
<path d="M3.45893 1.29231C3.08871 1.29231 2.80576 1.41077 2.61007 1.64769C2.41437 1.88461 2.31653 2.21039 2.31653 2.625C2.31653 2.92116 2.3324 3.20654 2.36413 3.48115C2.39587 3.75038 2.4276 4.01423 2.45933 4.27269C2.49636 4.52577 2.53073 4.77615 2.56247 5.02385C2.5942 5.27154 2.61007 5.52193 2.61007 5.775C2.61007 5.97423 2.58097 6.16538 2.5228 6.34846C2.46991 6.53154 2.39057 6.69846 2.2848 6.84923C2.17903 7 2.04944 7.13192 1.89607 7.245C1.74797 7.35808 1.57873 7.44153 1.38833 7.49538C1.57873 7.55461 1.74797 7.64077 1.89607 7.75385C2.04944 7.86153 2.17903 7.99077 2.2848 8.14154C2.39057 8.29231 2.46991 8.45923 2.5228 8.64231C2.58097 8.82539 2.61007 9.01653 2.61007 9.21577C2.61007 9.46884 2.5942 9.71923 2.56247 9.96692C2.53073 10.2146 2.49636 10.4677 2.45933 10.7262C2.4276 10.9792 2.39587 11.2431 2.36413 11.5177C2.3324 11.7869 2.31653 12.0696 2.31653 12.3658C2.31653 12.775 2.41437 13.0981 2.61007 13.335C2.80576 13.5719 3.08871 13.6904 3.45893 13.6904H3.53033C3.56736 13.6904 3.60967 13.6985 3.65727 13.7146C3.70487 13.7308 3.74983 13.755 3.79213 13.7873C3.83973 13.8196 3.87676 13.8627 3.9032 13.9165C3.93493 13.9704 3.9508 14.0323 3.9508 14.1023V14.9827H3.53033C3.03317 14.9827 2.59949 14.9154 2.22927 14.7808C1.86433 14.6515 1.56023 14.4658 1.31693 14.2235C1.07893 13.9866 0.901756 13.6985 0.7854 13.3592C0.669044 13.0254 0.610867 12.6539 0.610867 12.2446C0.610867 11.9807 0.626733 11.7223 0.658467 11.4692C0.695489 11.2108 0.735156 10.955 0.777467 10.7019C0.825067 10.4488 0.864733 10.1958 0.896467 9.94269C0.933489 9.68962 0.952 9.43653 0.952 9.18346C0.952 8.855 0.875311 8.58846 0.721933 8.38385C0.573844 8.17385 0.3332 8.06885 0 8.06885V6.91385C0.3332 6.91385 0.573844 6.81153 0.721933 6.60692C0.875311 6.39692 0.952 6.1277 0.952 5.79923C0.952 5.54616 0.933489 5.29577 0.896467 5.04808C0.864733 4.795 0.825067 4.54192 0.777467 4.28885C0.735156 4.03577 0.695489 3.78269 0.658467 3.52962C0.626733 3.27115 0.610867 3.01 0.610867 2.74615C0.610867 2.33692 0.669044 1.96538 0.7854 1.63154C0.901756 1.29231 1.07893 1.00154 1.31693 0.759231C1.56023 0.516923 1.86433 0.331154 2.22927 0.201923C2.59949 0.0673077 3.03317 0 3.53033 0H3.9508V0.888462C3.9508 0.958462 3.93493 1.02038 3.9032 1.07423C3.87676 1.12269 3.83973 1.16308 3.79213 1.19538C3.74983 1.22769 3.70487 1.25192 3.65727 1.26808C3.60967 1.28423 3.56736 1.29231 3.53033 1.29231H3.45893Z" fill="#168DE3"/>
<path d="M6.73009 12.5192C6.64017 12.7669 6.49473 12.9527 6.29375 13.0765C6.09806 13.2003 5.89709 13.2623 5.69082 13.2623H4.85782L9.49089 1.19537C9.5755 0.969214 9.70509 0.796906 9.87962 0.678445C10.0542 0.554599 10.2578 0.492676 10.4905 0.492676H11.3314L6.73009 12.5192Z" fill="#168DE3"/>
<path d="M16.1917 8.06885C15.8585 8.06885 15.6152 8.17385 15.4618 8.38385C15.3137 8.58846 15.2397 8.855 15.2397 9.18346C15.2397 9.43653 15.2556 9.68962 15.2873 9.94269C15.3242 10.1958 15.3639 10.4488 15.4063 10.7019C15.4539 10.955 15.4936 11.2108 15.5253 11.4692C15.5622 11.7223 15.5808 11.9807 15.5808 12.2446C15.5808 12.6539 15.5226 13.0254 15.4063 13.3592C15.2899 13.6985 15.11 13.9866 14.8668 14.2235C14.6288 14.4658 14.3246 14.6515 13.9545 14.7808C13.5896 14.9154 13.1584 14.9827 12.6614 14.9827H12.2409V14.1023C12.2409 14.0323 12.254 13.9704 12.2806 13.9165C12.3123 13.8627 12.3492 13.8196 12.3916 13.7873C12.4392 13.755 12.4868 13.7308 12.5344 13.7146C12.582 13.6985 12.6243 13.6904 12.6614 13.6904H12.7328C13.1029 13.6904 13.3833 13.5719 13.5737 13.335C13.7693 13.0981 13.8672 12.775 13.8672 12.3658C13.8672 12.0696 13.8514 11.7869 13.8196 11.5177C13.7931 11.2431 13.7614 10.9792 13.7244 10.7262C13.6874 10.4677 13.653 10.2146 13.6213 9.96692C13.5948 9.71923 13.5816 9.46884 13.5816 9.21577C13.5816 9.01653 13.608 8.82539 13.661 8.64231C13.7191 8.45923 13.801 8.29231 13.9069 8.14154C14.0126 7.99077 14.1396 7.86153 14.2877 7.75385C14.441 7.64077 14.613 7.55461 14.8034 7.49538C14.613 7.44153 14.441 7.35808 14.2877 7.245C14.1396 7.13192 14.0126 7 13.9069 6.84923C13.801 6.69846 13.7191 6.53154 13.661 6.34846C13.608 6.16538 13.5816 5.97423 13.5816 5.775C13.5816 5.52193 13.5948 5.27154 13.6213 5.02385C13.653 4.77615 13.6874 4.52577 13.7244 4.27269C13.7614 4.01423 13.7931 3.75038 13.8196 3.48115C13.8514 3.20654 13.8672 2.92116 13.8672 2.625C13.8672 2.21039 13.7693 1.88461 13.5737 1.64769C13.3833 1.41077 13.1029 1.29231 12.7328 1.29231H12.6614C12.6243 1.29231 12.582 1.28423 12.5344 1.26808C12.4868 1.25192 12.4392 1.22769 12.3916 1.19538C12.3492 1.16308 12.3123 1.12269 12.2806 1.07423C12.254 1.02038 12.2409 0.958462 12.2409 0.888462V0H12.6614C13.1584 0 13.5896 0.0673077 13.9545 0.201923C14.3246 0.331154 14.6288 0.516923 14.8668 0.759231C15.11 1.00154 15.2899 1.29231 15.4063 1.63154C15.5226 1.96538 15.5808 2.33692 15.5808 2.74615C15.5808 3.01 15.5622 3.27115 15.5253 3.52962C15.4936 3.78269 15.4539 4.03577 15.4063 4.28885C15.3639 4.54192 15.3242 4.795 15.2873 5.04808C15.2556 5.29577 15.2397 5.54616 15.2397 5.79923C15.2397 6.1277 15.3137 6.39692 15.4618 6.60692C15.6152 6.81153 15.8585 6.91385 16.1917 6.91385V8.06885Z" fill="#168DE3"/>
</svg>
