<svg width="18" height="18" viewBox="0 0 18 18" fill="none" xmlns="http://www.w3.org/2000/svg">
<path d="M16.664 4.87779C16.5855 4.51812 16.4138 4.18541 16.1661 3.91301C15.9185 3.64062 15.6036 3.43811 15.253 3.3258C13.1777 3.08419 11.0891 2.9753 9 2.9998C6.90956 2.97294 4.8198 3.09223 2.746 3.35679C2.39522 3.46896 2.08011 3.6714 1.83228 3.94381C1.58444 4.21622 1.4126 4.54901 1.334 4.90879C1.10506 6.26568 0.993318 7.63975 0.999999 9.01579C0.991921 10.4019 1.10401 11.7861 1.335 13.1528C1.42238 13.5014 1.59811 13.8217 1.84526 14.0827C2.0924 14.3437 2.40262 14.5366 2.746 14.6428C4.8198 14.9074 6.90956 15.0266 9 14.9998C11.0904 15.0266 13.1802 14.9074 15.254 14.6428C15.6046 14.5305 15.9195 14.328 16.1671 14.0556C16.4148 13.7832 16.5865 13.4505 16.665 13.0908C16.8925 11.7445 17.0045 10.3812 17 9.01579C17.0081 7.62971 16.896 6.24553 16.665 4.8788L16.664 4.87779Z" stroke="#168DE3" stroke-width="1.5" stroke-linecap="round" stroke-linejoin="round"/>
<path d="M7 11.5535L11.182 9.01554L7 6.47754V11.5535Z" stroke="#168DE3" stroke-width="1.5" stroke-linecap="round" stroke-linejoin="round"/>
</svg>
