<svg width="18" height="18" viewBox="0 0 18 18" fill="none" xmlns="http://www.w3.org/2000/svg">
<path d="M10.4998 1H4.49979C4.08881 1.01357 3.70002 1.18969 3.41878 1.48968C3.13754 1.78967 2.98685 2.189 2.99979 2.6V15.4C2.98685 15.811 3.13754 16.2103 3.41878 16.5103C3.70002 16.8103 4.08881 16.9864 4.49979 17H13.4998C13.9108 16.9864 14.2996 16.8103 14.5808 16.5103C14.862 16.2103 15.0127 15.811 14.9998 15.4V5.8L10.4998 1Z" stroke="#168DE3" stroke-width="1.5" stroke-linecap="round" stroke-linejoin="round"/>
<path d="M9.93379 1V5.8H14.9998" stroke="#168DE3" stroke-width="1.5" stroke-linecap="round" stroke-linejoin="round"/>
<path d="M6.3308 1.49609V14.0021" stroke="#168DE3" stroke-linecap="round" stroke-linejoin="round"/>
<path d="M4.6338 6H5.8748" stroke="#168DE3" stroke-linecap="round" stroke-linejoin="round"/>
<path d="M6.78979 7H8.03079" stroke="#168DE3" stroke-linecap="round" stroke-linejoin="round"/>
<path d="M6.78979 5H8.03079" stroke="#168DE3" stroke-linecap="round" stroke-linejoin="round"/>
<path d="M4.6338 8H5.8748" stroke="#168DE3" stroke-linecap="round" stroke-linejoin="round"/>
<path d="M6.78979 9H8.03079" stroke="#168DE3" stroke-linecap="round" stroke-linejoin="round"/>
<path d="M4.6338 10H5.8748" stroke="#168DE3" stroke-linecap="round" stroke-linejoin="round"/>
<path d="M6.7908 11H8.0318" stroke="#168DE3" stroke-linecap="round" stroke-linejoin="round"/>
<path d="M4.6348 12H5.7108" stroke="#168DE3" stroke-linecap="round" stroke-linejoin="round"/>
<path d="M6.78979 13H8.03079" stroke="#168DE3" stroke-linecap="round" stroke-linejoin="round"/>
</svg>
