<svg xmlns="http://www.w3.org/2000/svg" xmlns:xlink="http://www.w3.org/1999/xlink" width="180" height="200" viewBox="0 0 180 200"><defs><style>.a{fill:url(#a);}.b,.i{fill:#fff;}.c{fill:#f0f8fd;}.d,.e,.f,.h{fill:none;}.d{stroke:#168de3;opacity:0.219;}.d,.e,.h{stroke-linecap:round;stroke-width:2px;}.e{stroke:#b2bcc7;opacity:0.5;}.f{stroke:#012246;stroke-width:0.5px;opacity:0.05;}.g{fill:#b8dcf7;}.h{stroke:#fff;}.h,.i{opacity:0.8;}</style><linearGradient id="a" x1="0.5" x2="0.5" y2="0.941" gradientUnits="objectBoundingBox"><stop offset="0" stop-color="#168de3" stop-opacity="0.2"/><stop offset="1" stop-color="#168de3" stop-opacity="0"/></linearGradient></defs><g transform="translate(-125 -246)"><ellipse class="a" cx="90" cy="90.37" rx="90" ry="90.37" transform="translate(125 265.259)"/><g transform="translate(151.557 246)"><rect class="b" width="126.885" height="189.63" rx="5"/><g transform="translate(8.852 42.963)"><g transform="translate(0.369)"><rect class="c" width="25.082" height="25.185" rx="2"/><line class="d" x2="38.361" transform="translate(34.303 2.222)"/><line class="e" x2="74.379" transform="translate(34.303 13.333)"/><line class="e" x2="38.361" transform="translate(34.303 22.963)"/></g><g transform="translate(0.369 53.333)"><rect class="c" width="25.082" height="25.185" rx="2"/><line class="d" x2="38.361" transform="translate(34.303 2.222)"/><line class="e" x2="74.379" transform="translate(34.303 13.333)"/><line class="e" x2="38.361" transform="translate(34.303 22.963)"/></g><g transform="translate(0.369 106.667)"><rect class="c" width="25.082" height="25.185" rx="2"/><line class="d" x2="38.361" transform="translate(34.303 2.222)"/><line class="e" x2="74.379" transform="translate(34.303 13.333)"/><line class="e" x2="38.361" transform="translate(34.303 22.963)"/></g><line class="f" x2="109.18" transform="translate(0 92.593)"/></g><path class="g" d="M5,0H121.885a5,5,0,0,1,5,5V32.593a0,0,0,0,1,0,0H0a0,0,0,0,1,0,0V5A5,5,0,0,1,5,0Z"/><line class="f" x2="98.852" transform="translate(14.016 82.222)"/><line class="h" x2="38.361" transform="translate(24.713 19.259)"/><line class="h" x2="5.902" transform="translate(8.852 19.259)"/><ellipse class="i" cx="4.426" cy="4.444" rx="4.426" ry="4.444" transform="translate(94.426 14.815)"/><ellipse class="i" cx="4.426" cy="4.444" rx="4.426" ry="4.444" transform="translate(109.18 14.815)"/></g></g></svg>